HIERARCHY
ROOT Hips
{
	OFFSET 0.000000 0.000000 0.000000 
	CHANNELS 6 Xposition Yposition Zposition Zrotation Yrotation Xrotation
	JOINT LeftUpLeg
	{
		OFFSET 1.363060 -1.794630 0.839290 
		CHANNELS 3 Zrotation Yrotation Xrotation
		JOINT LeftLeg
		{
			OFFSET 2.448110 -6.726130 0.000000 
			CHANNELS 3 Zrotation Yrotation Xrotation
			JOINT LeftFoot
			{
				OFFSET 2.562200 -7.039590 0.000000 
				CHANNELS 3 Zrotation Yrotation Xrotation
				JOINT LeftToeBase
				{
					OFFSET 0.157640 -0.433110 2.322550 
					CHANNELS 3 Zrotation Yrotation Xrotation
					End Site
					{
						OFFSET 0.000000 0.000000 0.000000 
					}
				}
			}
		}
	}
	JOINT RightUpLeg
	{
		OFFSET -1.305520 -1.794630 0.839290 
		CHANNELS 3 Zrotation Yrotation Xrotation
		JOINT RightLeg
		{
			OFFSET -2.542530 -6.985550 0.000000 
			CHANNELS 3 Zrotation Yrotation Xrotation
			JOINT RightFoot
			{
				OFFSET -2.568260 -7.056230 0.000000 
				CHANNELS 3 Zrotation Yrotation Xrotation
				JOINT RightToeBase
				{
					OFFSET -0.164730 -0.452590 2.363150 
					CHANNELS 3 Zrotation Yrotation Xrotation
					End Site
					{
						OFFSET 0.000000 0.000000 0.000000 
					}
				}
			}
		}
	}
	JOINT Spine
	{
		OFFSET 0.028270 2.035590 -0.193380 
		CHANNELS 3 Zrotation Yrotation Xrotation
		JOINT Spine1
		{
			OFFSET 0.056720 2.048850 -0.042750 
			CHANNELS 3 Zrotation Yrotation Xrotation
			JOINT Neck1
			{
				OFFSET -0.054170 1.746240 0.172020 
				CHANNELS 3 Zrotation Yrotation Xrotation
				JOINT Head
				{
					OFFSET 0.104070 1.761360 -0.123970 
					CHANNELS 3 Zrotation Yrotation Xrotation
					End Site
					{
						OFFSET 0.000000 0.000000 0.000000 
					}
				}
			}
			JOINT LeftArm
			{
				OFFSET 3.362410 1.200890 -0.311210 
				CHANNELS 3 Zrotation Yrotation Xrotation
				JOINT LeftForeArm
				{
					OFFSET 4.983000 -0.000000 -0.000000 
					CHANNELS 3 Zrotation Yrotation Xrotation
					JOINT LeftHand
					{
						OFFSET 3.483560 -0.000000 -0.000000 
						CHANNELS 3 Zrotation Yrotation Xrotation
						JOINT LeftHandIndex1
						{
							OFFSET 0.715260 -0.000000 -0.000000 
							CHANNELS 3 Zrotation Yrotation Xrotation
							End Site
							{
								OFFSET 0.000000 0.000000 0.000000 
							}
						}
					}
				}
			}
			JOINT RightArm
			{
				OFFSET -3.136600 1.374050 -0.404650 
				CHANNELS 3 Zrotation Yrotation Xrotation
				JOINT RightForeArm
				{
					OFFSET -5.241900 -0.000000 -0.000000 
					CHANNELS 3 Zrotation Yrotation Xrotation
					JOINT RightHand
					{
						OFFSET -3.444170 -0.000000 -0.000000 
						CHANNELS 3 Zrotation Yrotation Xrotation
						JOINT RightHandIndex1
						{
							OFFSET -0.622530 -0.000000 -0.000000 
							CHANNELS 3 Zrotation Yrotation Xrotation
							End Site
							{
								OFFSET 0.000000 0.000000 0.000000 
							}
						}
					}
				}
			}
		}
	}
}
MOTION
Frames: 9
Frame Time: 0.041667
1.763710 17.773351 37.366579 177.801511 -6.811070 -175.731688 -19.540510 -6.024189 -3.350324 -0.573460 6.492229 16.276573 -2.274175 11.228758 -2.285903 0.017600 -0.856300 -2.353500 9.234681 0.839185 -30.318555 -9.720259 -17.635872 58.492471 3.958864 -18.130966 -11.361170 -0.234800 3.118600 -8.609200 1.211535 -7.661243 -1.800324 0.809755 -3.879624 -4.283436 0.684902 8.541027 16.463300 -1.561000 4.308200 11.525300 -92.408832 9.214409 18.549704 20.062981 -30.173184 -4.891031 0.185104 0.443987 -7.745007 -7.125000 0.000000 0.000000 85.613207 -4.973263 26.911077 -16.762446 26.615053 -3.757649 0.042090 -0.615425 -7.231296 7.125000 0.000000 0.000000 
1.758451 17.776427 37.341869 177.861086 -6.806343 -175.828125 -19.511284 -5.950074 -3.059169 -0.599616 6.404087 16.017769 -2.281290 11.271365 -2.217209 0.019000 -0.890100 -2.446400 9.314414 0.908231 -30.665787 -9.541627 -17.542974 57.998629 3.810410 -17.715692 -12.215489 -0.241100 3.159600 -8.723400 1.231020 -7.715898 -1.776021 0.817058 -3.909549 -4.339976 0.641501 8.632832 16.519311 -1.564800 4.347600 11.567800 -92.451419 9.252726 18.408630 20.039940 -30.145135 -4.880181 0.184644 0.444104 -7.746157 -7.125000 0.000000 0.000000 85.635842 -4.989430 26.907164 -16.690638 26.524152 -3.728525 0.040847 -0.614363 -7.130576 7.125000 0.000000 0.000000 
1.753687 17.779503 37.315373 177.926137 -6.780552 -175.935291 -19.476893 -5.860207 -2.746959 -0.626703 6.310183 15.741401 -2.291815 11.327979 -2.151872 0.020600 -0.927600 -2.549500 9.410766 1.001887 -30.946392 -9.315365 -17.421939 57.344361 3.654867 -17.284440 -13.022059 -0.249400 3.213100 -8.872700 1.253985 -7.754051 -1.752240 0.831725 -3.931151 -4.401605 0.603749 8.708038 16.578648 -1.568000 4.380400 11.607300 -92.495439 9.306128 18.284177 20.022510 -30.123837 -4.871851 0.183792 0.444903 -7.756525 -7.125000 0.000000 0.000000 85.652803 -5.025872 26.898250 -16.621760 26.436504 -3.700625 0.039962 -0.613466 -7.044480 7.125000 0.000000 0.000000 
1.749916 17.782580 37.287488 177.994564 -6.717081 -176.047269 -19.438228 -5.734622 -2.431416 -0.654526 6.210783 15.449383 -2.303643 11.390600 -2.089569 0.022400 -0.967200 -2.658500 9.519704 1.139009 -31.167552 -9.047070 -17.273292 56.543060 3.499161 -16.858633 -13.774648 -0.259600 3.277800 -9.053200 1.280548 -7.760392 -1.725698 0.860959 -3.936180 -4.459176 0.578387 8.755567 16.613696 -1.570600 4.401300 11.628700 -92.531414 9.365268 18.199459 20.010239 -30.108624 -4.865944 0.182621 0.446301 -7.777117 -7.125000 0.000000 0.000000 85.670316 -5.079140 26.867417 -16.559363 26.356473 -3.675434 0.039485 -0.612758 -6.973592 7.125000 0.000000 0.000000 
1.747138 17.785457 37.258511 178.063481 -6.616097 -176.158382 -19.396017 -5.572449 -2.119585 -0.682619 6.106144 15.142985 -2.315590 11.454683 -2.029701 0.024300 -1.007400 -2.769100 9.636988 1.320749 -31.336245 -8.742025 -17.097466 55.608208 3.349785 -16.456165 -14.466294 -0.271900 3.354200 -9.266400 1.309262 -7.730385 -1.693968 0.903438 -3.922554 -4.505772 0.571514 8.767234 16.609618 -1.571900 4.406300 11.623700 -92.550747 9.423820 18.170627 20.003116 -30.099388 -4.862281 0.181323 0.448103 -7.806751 -7.125000 0.000000 0.000000 85.694660 -5.144393 26.804267 -16.504688 26.286154 -3.653405 0.039371 -0.612190 -6.917667 7.125000 0.000000 0.000000 
1.745153 17.788137 37.228443 178.132143 -6.493432 -176.268098 -19.352469 -5.386367 -1.806759 -0.711285 5.995824 14.821448 -2.326839 11.517420 -1.969629 0.026300 -1.046500 -2.876700 9.758625 1.531226 -31.457356 -8.406040 -16.895170 54.553489 3.212555 -16.092416 -15.089703 -0.286700 3.443500 -9.516100 1.337570 -7.678182 -1.656937 0.951914 -3.897250 -4.543870 0.577958 8.761279 16.559693 -1.572800 4.403200 11.592800 -92.554329 9.480102 18.185561 20.000841 -30.095953 -4.860906 0.180273 0.450010 -7.838074 -7.125000 0.000000 0.000000 85.724693 -5.212934 26.725918 -16.457588 26.225583 -3.634316 0.039564 -0.611711 -6.875681 7.125000 0.000000 0.000000 
1.743565 17.790816 37.197382 178.198851 -6.368400 -176.378825 -19.309739 -5.194675 -1.482468 -0.740619 5.878922 14.481929 -2.337164 11.578110 -1.906050 0.028100 -1.082300 -2.975200 9.880430 1.749899 -31.533766 -8.044666 -16.667258 53.393312 3.093230 -15.782284 -15.637728 -0.304300 3.546700 -9.804800 1.363806 -7.621317 -1.616645 0.999495 -3.869450 -4.579488 0.591501 8.751283 16.486507 -1.572900 4.398200 11.550100 -92.545658 9.536261 18.228647 20.002993 -30.097530 -4.861730 0.179695 0.451732 -7.865194 -7.125000 0.000000 0.000000 85.756360 -5.280590 26.653640 -16.418067 26.174461 -3.618067 0.039976 -0.611258 -6.846435 7.125000 0.000000 0.000000 
1.741581 17.793396 37.165428 178.262013 -6.267613 -176.490026 -19.270990 -5.022150 -1.132786 -0.771172 5.754054 14.120286 -2.346308 11.636758 -1.834031 0.029700 -1.113100 -3.060100 9.998003 1.948736 -31.570597 -7.663933 -16.415228 52.143367 2.996134 -15.537014 -16.107080 -0.324000 3.658800 -10.118700 1.387045 -7.576146 -1.574197 1.039995 -3.847962 -4.616251 0.606486 8.745123 16.412303 -1.572300 4.394900 11.509100 -92.529356 9.590008 18.289388 20.007716 -30.102211 -4.863847 0.179724 0.453052 -7.882408 -7.125000 0.000000 0.000000 85.784353 -5.344192 26.601423 -16.386918 26.133974 -3.605096 0.040545 -0.610823 -6.831268 7.125000 0.000000 0.000000 
1.739199 17.795976 37.132681 178.320813 -6.199496 -176.600899 -19.237538 -4.874887 -0.753854 -0.803303 5.619768 13.732358 -2.353607 11.691179 -1.749412 0.031100 -1.138500 -3.130100 10.108083 2.116899 -31.573490 -7.269813 -16.140761 50.820530 2.924375 -15.363937 -16.497588 -0.344400 3.770800 -10.432700 1.407686 -7.549991 -1.532018 1.073905 -3.836440 -4.657817 0.617968 8.748008 16.353712 -1.571500 4.395600 11.479400 -92.510236 9.641424 18.357176 20.014397 -30.109014 -4.866903 0.180203 0.453875 -7.888863 -7.125000 0.000000 0.000000 85.803310 -5.404577 26.578886 -16.365455 26.105407 -3.595685 0.041208 -0.610432 -6.827558 7.125000 0.000000 0.000000 
